<svg version="1.1" id="Layer_1" xmlns="http://www.w3.org/2000/svg" xmlns:xlink="http://www.w3.org/1999/xlink" x="0px" y="0px"
	 width="100%" viewBox="0 0 512 512" enable-background="new 0 0 512 512" xml:space="preserve">
<path fill="#000000" opacity="1.000000" stroke="none" 
	d="
M302.000000,513.000000 
	C201.357773,513.000000 101.215538,513.000000 1.036655,513.000000 
	C1.036655,342.399414 1.036655,171.798813 1.036655,1.099110 
	C171.558914,1.099110 342.117889,1.099110 512.838440,1.099110 
	C512.838440,171.666550 512.838440,342.333252 512.838440,513.000000 
	C442.798798,513.000000 372.649384,513.000000 302.000000,513.000000 
M331.690369,500.154999 
	C356.849365,492.485809 380.175446,481.157745 401.839905,466.155914 
	C421.071747,452.838501 438.075775,437.142914 452.997253,419.295593 
	C470.156982,398.771057 483.640900,375.930176 493.541351,350.986145 
	C503.239258,326.552429 509.310974,301.190460 510.695618,275.067780 
	C511.595764,258.085480 510.307251,240.902252 508.887360,223.901901 
	C506.794586,198.845322 499.254425,175.048248 488.971039,152.243240 
	C473.435120,117.789894 451.049805,88.366760 422.312897,63.727982 
	C402.581146,46.810173 380.854126,33.243423 356.995453,22.972742 
	C330.825867,11.707258 303.458618,4.880381 275.143616,3.305675 
	C258.167664,2.361578 240.979843,3.698543 223.978180,5.107586 
	C198.918045,7.184491 175.125854,14.728718 152.314636,25.002230 
	C117.851387,40.523476 88.423698,62.898067 63.781563,91.632309 
	C46.752068,111.489731 33.129623,133.363312 22.821245,157.397903 
	C11.654194,183.434586 4.907860,210.643860 3.310700,238.780396 
	C2.347229,255.753494 3.701087,272.943054 5.103310,289.945465 
	C7.170190,315.007080 14.709450,338.796906 24.975027,361.614197 
	C40.484066,396.086090 62.850548,425.514282 91.575928,450.166687 
	C111.428062,467.204071 133.296738,480.832275 157.328568,491.147308 
	C183.361771,502.321381 210.577271,508.807861 238.702454,510.760498 
	C252.561279,511.722656 266.593933,510.587463 280.527863,509.957581 
	C297.753387,509.178894 314.465698,505.325287 331.690369,500.154999 
z"/>
<path fill="#336666" opacity="1.000000" stroke="none" 
	d="
M331.330200,500.336914 
	C314.465698,505.325287 297.753387,509.178894 280.527863,509.957581 
	C266.593933,510.587463 252.561279,511.722656 238.702454,510.760498 
	C210.577271,508.807861 183.361771,502.321381 157.328568,491.147308 
	C133.296738,480.832275 111.428062,467.204071 91.575928,450.166687 
	C62.850548,425.514282 40.484066,396.086090 24.975027,361.614197 
	C14.709450,338.796906 7.170190,315.007080 5.103310,289.945465 
	C3.701087,272.943054 2.347229,255.753494 3.310700,238.780396 
	C4.907860,210.643860 11.654194,183.434586 22.821245,157.397903 
	C33.129623,133.363312 46.752068,111.489731 63.781563,91.632309 
	C88.423698,62.898067 117.851387,40.523476 152.314636,25.002230 
	C175.125854,14.728718 198.918045,7.184491 223.978180,5.107586 
	C240.979843,3.698543 258.167664,2.361578 275.143616,3.305675 
	C303.458618,4.880381 330.825867,11.707258 356.995453,22.972742 
	C380.854126,33.243423 402.581146,46.810173 422.312897,63.727982 
	C451.049805,88.366760 473.435120,117.789894 488.971039,152.243240 
	C499.254425,175.048248 506.794586,198.845322 508.887360,223.901901 
	C510.307251,240.902252 511.595764,258.085480 510.695618,275.067780 
	C509.310974,301.190460 503.239258,326.552429 493.541351,350.986145 
	C483.640900,375.930176 470.156982,398.771057 452.997253,419.295593 
	C438.075775,437.142914 421.071747,452.838501 401.839905,466.155914 
	C380.175446,481.157745 356.849365,492.485809 331.330200,500.336914 
M297.499634,294.533142 
	C320.331573,294.533173 343.167450,294.270996 365.994171,294.616333 
	C384.180786,294.891449 398.460815,286.845062 410.532227,274.420868 
	C437.109253,247.067032 431.845184,187.938446 380.320251,169.713013 
	C378.500641,169.069397 376.403381,169.013931 374.435608,169.014481 
	C302.108307,169.034485 229.781021,169.092087 157.453735,169.158356 
	C156.019073,169.159668 154.584579,169.325287 152.802979,169.435760 
	C152.802979,207.367218 152.802979,244.987122 152.802979,283.128113 
	C131.025528,283.128113 109.614136,283.128113 88.189499,283.128113 
	C88.189499,287.104584 88.189499,290.555634 88.189499,294.692291 
	C109.773911,294.692291 131.165787,294.692291 152.929474,294.692291 
	C152.929474,311.824982 152.929474,328.273468 152.929474,344.734558 
	C157.581711,344.734558 161.839157,344.734558 166.629150,344.734558 
	C166.629150,327.867096 166.629150,311.271301 166.629150,294.533081 
	C210.279282,294.533081 253.389450,294.533081 297.499634,294.533142 
z"/>
<path fill="#F9FBFB" opacity="1.000000" stroke="none" 
	d="
M296.999634,294.533112 
	C253.389450,294.533081 210.279282,294.533081 166.629150,294.533081 
	C166.629150,311.271301 166.629150,327.867096 166.629150,344.734558 
	C161.839157,344.734558 157.581711,344.734558 152.929474,344.734558 
	C152.929474,328.273468 152.929474,311.824982 152.929474,294.692291 
	C131.165787,294.692291 109.773911,294.692291 88.189499,294.692291 
	C88.189499,290.555634 88.189499,287.104584 88.189499,283.128113 
	C109.614136,283.128113 131.025528,283.128113 152.802979,283.128113 
	C152.802979,244.987122 152.802979,207.367218 152.802979,169.435760 
	C154.584579,169.325287 156.019073,169.159668 157.453735,169.158356 
	C229.781021,169.092087 302.108307,169.034485 374.435608,169.014481 
	C376.403381,169.013931 378.500641,169.069397 380.320251,169.713013 
	C431.845184,187.938446 437.109253,247.067032 410.532227,274.420868 
	C398.460815,286.845062 384.180786,294.891449 365.994171,294.616333 
	C343.167450,294.270996 320.331573,294.533173 296.999634,294.533112 
M404.243652,261.682068 
	C418.438660,242.432022 418.006195,216.606369 402.448486,198.496078 
	C392.724945,187.177170 380.966766,180.198761 364.848755,180.325317 
	C300.882660,180.827606 236.910294,180.531982 172.940262,180.532013 
	C170.824677,180.532013 168.709091,180.531998 166.391464,180.531998 
	C166.391464,214.332947 166.391464,247.440598 166.391464,280.986694 
	C168.465378,280.986694 170.436401,280.986694 172.407425,280.986694 
	C236.044296,280.986694 299.682465,280.762726 363.317139,281.136810 
	C380.214935,281.236115 393.121185,274.562439 404.243652,261.682068 
z"/>
<path fill="#336666" opacity="1.000000" stroke="none" 
	d="
M404.031921,261.971344 
	C393.121185,274.562439 380.214935,281.236115 363.317139,281.136810 
	C299.682465,280.762726 236.044296,280.986694 172.407425,280.986694 
	C170.436401,280.986694 168.465378,280.986694 166.391464,280.986694 
	C166.391464,247.440598 166.391464,214.332947 166.391464,180.531998 
	C168.709091,180.531998 170.824677,180.532013 172.940262,180.532013 
	C236.910294,180.531982 300.882660,180.827606 364.848755,180.325317 
	C380.966766,180.198761 392.724945,187.177170 402.448486,198.496078 
	C418.006195,216.606369 418.438660,242.432022 404.031921,261.971344 
z"/>
</svg>