<svg version="1.1" id="Layer_1" xmlns="http://www.w3.org/2000/svg" xmlns:xlink="http://www.w3.org/1999/xlink" x="0px" y="0px"
	 width="100%" viewBox="0 0 512 512" enable-background="new 0 0 512 512" xml:space="preserve">
<path fill="#000000" opacity="1.000000" stroke="none" 
	d="
M301.000000,513.000000 
	C200.691025,513.000000 100.882042,513.000000 1.036533,513.000000 
	C1.036533,342.399323 1.036533,171.798660 1.036533,1.098988 
	C171.558990,1.098988 342.118042,1.098988 512.838562,1.098988 
	C512.838562,171.666550 512.838562,342.333252 512.838562,513.000000 
	C442.465302,513.000000 371.982635,513.000000 301.000000,513.000000 
M330.891296,500.293976 
	C356.948151,492.228302 381.191589,480.518219 403.522980,464.771423 
	C422.069672,451.693359 438.574280,436.385223 452.992889,418.990204 
	C469.932983,398.553223 483.356964,375.908081 493.205109,351.141571 
	C502.932190,326.679565 508.930420,301.317444 510.542664,275.166779 
	C511.745850,255.651062 511.139404,236.069305 507.948639,216.568298 
	C504.240326,193.904129 497.810303,172.134888 488.315887,151.359955 
	C472.765503,117.333755 450.584015,88.188515 422.115540,63.797920 
	C408.648895,52.260235 394.222534,42.149822 378.712036,33.680649 
	C346.653961,16.175999 312.224640,6.035058 275.868317,3.441741 
	C253.005981,1.810959 230.055588,2.886620 207.478088,7.553025 
	C180.124756,13.206515 154.191971,22.693974 129.974503,36.764999 
	C104.991234,51.280994 83.171333,69.506447 64.293587,91.386932 
	C47.112549,111.300827 33.432514,133.297195 23.066406,157.458038 
	C11.882698,183.524490 5.055830,210.743958 3.527209,238.932617 
	C2.605868,255.922729 3.916682,273.118958 5.330943,290.130585 
	C7.415908,315.209869 14.990908,339.021210 25.311308,361.823212 
	C40.807640,396.060974 63.004726,425.395386 91.600449,449.915771 
	C111.566162,467.036133 133.557083,480.737335 157.719849,491.072571 
	C183.634048,502.156952 210.717346,508.779602 238.726624,510.586853 
	C269.670990,512.583374 300.298218,509.610168 330.891296,500.293976 
z"/>
<path fill="#8D5572" opacity="1.000000" stroke="none" 
	d="
M330.526123,500.467896 
	C300.298218,509.610168 269.670990,512.583374 238.726624,510.586853 
	C210.717346,508.779602 183.634048,502.156952 157.719849,491.072571 
	C133.557083,480.737335 111.566162,467.036133 91.600449,449.915771 
	C63.004726,425.395386 40.807640,396.060974 25.311308,361.823212 
	C14.990908,339.021210 7.415908,315.209869 5.330943,290.130585 
	C3.916682,273.118958 2.605868,255.922729 3.527209,238.932617 
	C5.055830,210.743958 11.882698,183.524490 23.066406,157.458038 
	C33.432514,133.297195 47.112549,111.300827 64.293587,91.386932 
	C83.171333,69.506447 104.991234,51.280994 129.974503,36.764999 
	C154.191971,22.693974 180.124756,13.206515 207.478088,7.553025 
	C230.055588,2.886620 253.005981,1.810959 275.868317,3.441741 
	C312.224640,6.035058 346.653961,16.175999 378.712036,33.680649 
	C394.222534,42.149822 408.648895,52.260235 422.115540,63.797920 
	C450.584015,88.188515 472.765503,117.333755 488.315887,151.359955 
	C497.810303,172.134888 504.240326,193.904129 507.948639,216.568298 
	C511.139404,236.069305 511.745850,255.651062 510.542664,275.166779 
	C508.930420,301.317444 502.932190,326.679565 493.205109,351.141571 
	C483.356964,375.908081 469.932983,398.553223 452.992889,418.990204 
	C438.574280,436.385223 422.069672,451.693359 403.522980,464.771423 
	C381.191589,480.518219 356.948151,492.228302 330.526123,500.467896 
M355.500000,168.997711 
	C288.094391,168.997711 220.688797,168.997711 152.772980,168.997711 
	C152.772980,207.486084 152.772980,245.054047 152.772980,283.220947 
	C130.893356,283.220947 109.519867,283.220947 88.373276,283.220947 
	C88.373276,287.257324 88.373276,290.676025 88.373276,294.607300 
	C110.008224,294.607300 131.271378,294.607300 153.116989,294.607300 
	C153.116989,311.676727 153.116989,328.231323 153.116989,344.676483 
	C157.807480,344.676483 161.900818,344.676483 166.519257,344.676483 
	C166.519257,327.764435 166.519257,311.170837 166.519257,294.082428 
	C168.663406,294.082428 170.289917,294.072998 171.916306,294.083893 
	C186.239792,294.179688 200.563202,294.354309 214.886734,294.363922 
	C266.201141,294.398438 317.515656,294.407898 368.829926,294.317719 
	C372.771729,294.310791 376.898438,294.053986 380.623962,292.897644 
	C414.733948,282.310272 432.245453,251.427216 424.002045,216.714828 
	C420.610474,202.433182 412.903229,190.858032 401.603333,181.616928 
	C390.669220,172.674988 378.624756,167.033020 363.991272,168.952271 
	C361.534424,169.274490 358.999054,168.997711 355.500000,168.997711 
z"/>
<path fill="#FEFEFE" opacity="1.000000" stroke="none" 
	d="
M356.000000,168.997711 
	C358.999054,168.997711 361.534424,169.274490 363.991272,168.952271 
	C378.624756,167.033020 390.669220,172.674988 401.603333,181.616928 
	C412.903229,190.858032 420.610474,202.433182 424.002045,216.714828 
	C432.245453,251.427216 414.733948,282.310272 380.623962,292.897644 
	C376.898438,294.053986 372.771729,294.310791 368.829926,294.317719 
	C317.515656,294.407898 266.201141,294.398438 214.886734,294.363922 
	C200.563202,294.354309 186.239792,294.179688 171.916306,294.083893 
	C170.289917,294.072998 168.663406,294.082428 166.519257,294.082428 
	C166.519257,311.170837 166.519257,327.764435 166.519257,344.676483 
	C161.900818,344.676483 157.807480,344.676483 153.116989,344.676483 
	C153.116989,328.231323 153.116989,311.676727 153.116989,294.607300 
	C131.271378,294.607300 110.008224,294.607300 88.373276,294.607300 
	C88.373276,290.676025 88.373276,287.257324 88.373276,283.220947 
	C109.519867,283.220947 130.893356,283.220947 152.772980,283.220947 
	C152.772980,245.054047 152.772980,207.486084 152.772980,168.997711 
	C220.688797,168.997711 288.094391,168.997711 356.000000,168.997711 
M397.481140,193.002136 
	C389.481903,186.678055 381.441498,180.386032 370.512756,180.383011 
	C304.204407,180.364670 237.896042,180.371338 171.587692,180.388046 
	C169.835266,180.388489 168.082901,180.598404 166.376450,180.707703 
	C166.376450,214.384018 166.376450,247.467651 166.376450,280.784760 
	C167.957108,280.866150 169.255417,280.991333 170.553772,280.991516 
	C236.862137,281.000977 303.170532,281.023560 369.478760,280.928253 
	C372.735809,280.923553 376.124695,280.282013 379.227325,279.256622 
	C416.696198,266.873230 426.487274,221.960693 397.481140,193.002136 
z"/>
<path fill="#8E5673" opacity="1.000000" stroke="none" 
	d="
M397.737183,193.246429 
	C426.487274,221.960693 416.696198,266.873230 379.227325,279.256622 
	C376.124695,280.282013 372.735809,280.923553 369.478760,280.928253 
	C303.170532,281.023560 236.862137,281.000977 170.553772,280.991516 
	C169.255417,280.991333 167.957108,280.866150 166.376450,280.784760 
	C166.376450,247.467651 166.376450,214.384018 166.376450,180.707703 
	C168.082901,180.598404 169.835266,180.388489 171.587692,180.388046 
	C237.896042,180.371338 304.204407,180.364670 370.512756,180.383011 
	C381.441498,180.386032 389.481903,186.678055 397.737183,193.246429 
z"/>
</svg>